<svg xmlns="http://www.w3.org/2000/svg" width="220" height="220" viewBox="0 0 220 220">
  <rect width="220" height="220" rx="46" fill="#0A1322"/>
  <g fill="#EAF2FC" transform="translate(31,32) scale(0.877)">
    <path d="M99.34,81.65c0,15.16-4.87,26.02-14.6,32.6-9.73,6.58-19.9,9.86-30.52,9.86-15.51,0-28.43-6.19-38.75-18.58C5.16,93.15,0,78.67,0,62.1S5.28,30.74,15.84,18.44C26.39,6.15,39.54,0,55.29,0c8.14,0,15.92,2.36,23.36,7.08,2.24,1.41,3.8,2.12,4.69,2.12,1.89,0,3.77-1.68,5.66-5.04h3.98l1.24,32.2h-4.51c-4.9-21.23-16.48-31.85-34.77-31.85-9.5,0-16.42,2.14-20.79,6.41-4.36,4.28-7.03,9.67-8.01,16.19-.97,6.52-1.46,15.82-1.46,27.91,0,21.76.72,36.18,2.17,43.26,1.44,7.08,4.41,12.4,8.89,15.97,4.48,3.57,9.97,5.35,16.45,5.35,5.19,0,9.8-1.06,13.84-3.18,4.04-2.12,6.57-5.29,7.61-9.51,1.03-4.22,1.55-10.51,1.55-18.89v-6.37h-20.08v-4.51h43.85l.38,4.51Z"/>
    <path d="M169.01,39.68l.62,36.12h-4.88c-6.92-21.65-19.13-32.49-36.64-32.49-9.69,0-17.21,2.68-22.57,8.04-5.36,5.36-8.04,10.91-8.04,16.66,0,5.33,2.23,9.86,6.69,13.6,4.46,3.74,12.61,6.63,24.44,8.67,11.83,2.04,20.84,4.53,27.04,7.47,6.19,2.94,11.42,7.83,15.67,14.68,4.26,6.85,6.38,14.7,6.38,23.56,0,13.63-4.45,24.98-13.34,34.04-8.89,9.07-19.91,13.6-33.06,13.6-10.73,0-21.42-3.98-32.07-11.93l-9.76,8.72h-3.63v-38.92h4.46c4.08,12.25,9.79,21.45,17.12,27.61,7.33,6.16,15.36,9.24,24.08,9.24s16.59-2.85,23.82-8.56c7.23-5.71,10.85-12.92,10.85-21.64,0-7.33-2.51-13.51-7.53-18.53-5.02-5.01-13.15-8.47-24.39-10.38-11.24-1.9-19.88-4.12-25.89-6.64-6.02-2.52-11.17-6.92-15.46-13.18-4.29-6.26-6.43-13.2-6.43-20.81,0-10.52,3.74-19.91,11.21-28.18,7.47-8.27,17.61-12.4,30.41-12.4,10.72,0,20.72,3.39,29.99,10.17,2.56-2.42,4.77-5.26,6.64-8.51h4.26Z"/>
  </g>
</svg>
